<?xml version="1.0" standalone="no"?>
<!DOCTYPE svg PUBLIC "-//W3C//DTD SVG 20010904//EN"
 "http://www.w3.org/TR/2001/REC-SVG-20010904/DTD/svg10.dtd">
<svg version="1.0" xmlns="http://www.w3.org/2000/svg"
 width="500.000000pt" height="500.000000pt" viewBox="0 0 500.000000 500.000000"
 preserveAspectRatio="xMidYMid meet">
<metadata>
Created by potrace 1.14, written by Peter Selinger 2001-2017
</metadata>
<g transform="translate(0.000000,500.000000) scale(0.100000,-0.100000)"
fill="#000000" stroke="none">
<path d="M1340 4673 c-419 -33 -680 -233 -816 -628 -103 -296 -118 -744 -38
-1127 7 -37 16 -82 19 -100 17 -98 100 -376 161 -541 100 -270 276 -652 391
-845 24 -41 43 -75 43 -77 0 -9 242 -391 272 -430 5 -5 32 -41 61 -80 118
-158 259 -299 313 -314 57 -16 63 -4 65 119 1 97 10 189 24 250 3 14 8 36 11
50 11 55 77 238 114 317 152 325 377 538 577 546 29 1 53 5 53 8 0 5 -100 53
-155 74 -11 4 -49 13 -85 19 -308 54 -558 -214 -694 -745 -33 -128 -43 -175
-45 -209 -1 -8 -15 10 -32 40 -71 127 -349 689 -349 706 0 2 -13 32 -29 66
-121 266 -284 739 -315 911 -3 15 -7 35 -10 45 -28 94 -59 382 -59 567 -2 388
68 677 212 867 76 101 185 169 308 191 131 25 181 16 558 -102 39 -13 199 -51
239 -57 73 -13 204 -12 253 1 69 19 144 67 193 123 45 53 44 54 -50 71 -36 7
-109 23 -163 37 -91 23 -142 39 -442 144 -158 55 -309 88 -431 96 -54 3 -103
6 -109 7 -5 2 -26 1 -45 0z"/>
<path d="M3580 4673 c-196 -20 -370 -89 -512 -201 -73 -58 -122 -112 -208
-226 -99 -132 -271 -273 -401 -329 -53 -23 -145 -51 -204 -62 -37 -6 -233 -7
-260 -1 -11 2 -42 10 -70 16 -27 6 -60 14 -72 16 -26 5 -177 62 -212 80 -14 7
-27 11 -30 8 -9 -9 61 -67 144 -120 218 -140 395 -205 559 -206 199 0 324 69
576 320 166 165 210 204 305 266 212 140 465 169 634 73 97 -56 182 -151 243
-272 25 -48 73 -183 84 -235 15 -69 34 -199 40 -272 13 -154 7 -494 -11 -583
-3 -11 -7 -38 -10 -60 -34 -251 -177 -716 -310 -1010 -7 -16 -20 -48 -30 -70
-43 -107 -150 -331 -246 -520 -139 -272 -162 -315 -171 -315 -5 0 -8 28 -9 63
0 78 -6 180 -13 232 -3 22 -8 63 -12 90 -9 82 -54 274 -81 350 -156 433 -445
574 -857 420 -163 -61 -166 -64 -50 -63 177 1 319 -51 437 -162 163 -152 263
-383 326 -750 25 -147 32 -221 46 -455 3 -49 8 -99 10 -110 2 -11 4 -26 4 -33
1 -7 12 -17 25 -23 144 -66 684 705 984 1406 177 415 304 845 336 1140 3 28 9
82 13 120 13 131 7 446 -12 560 -79 471 -280 756 -615 870 -36 12 -68 22 -73
23 -4 0 -31 5 -60 11 -52 10 -191 18 -237 14z"/>
</g>
</svg>
